<svg xmlns="http://www.w3.org/2000/svg" width="70.666" height="70.666" viewBox="0 0 90.666 90.666">
  <g id="Group_1502" data-name="Group 1502" transform="translate(-915 -301)">
    <g id="check_1_" data-name="check(1)" transform="translate(915 301)">
      <path id="Path_1924" data-name="Path 1924" d="M119.5,102.476h0a3.264,3.264,0,0,1-2.506-1.139l-17.2-18.68A3.387,3.387,0,0,1,104.8,78.1l14.807,16.06,41-40.891a3.3,3.3,0,0,1,4.784,0,3.4,3.4,0,0,1,0,4.784l-43.511,43.4A3.1,3.1,0,0,1,119.5,102.476Z" transform="translate(-77.353 -40.855)" fill="#00cd6d"/>
      <path id="Path_1925" data-name="Path 1925" d="M45.333,90.666A45.333,45.333,0,1,1,45.333,0,3.356,3.356,0,0,1,48.75,3.417a3.356,3.356,0,0,1-3.417,3.417,38.5,38.5,0,1,0,38.5,38.5,3.417,3.417,0,1,1,6.834,0A45.452,45.452,0,0,1,45.333,90.666Z" fill="#fff"/>
    </g>
  </g>
</svg>
